<svg xmlns="http://www.w3.org/2000/svg" width="43.511" height="43.511" viewBox="0 0 43.511 43.511">
  <path id="work.2" d="M20.937,5.3a3.161,3.161,0,0,0-3.047,2.379H29.6A3.161,3.161,0,0,0,26.552,5.3ZM32.908,7.684h4.31a8.356,8.356,0,0,1,8.293,8.394s-.131,1.959-.174,4.686a.718.718,0,0,1-.281.555c-1.047.773-2,1.412-2.092,1.456a33.18,33.18,0,0,1-12.285,4.977.692.692,0,0,1-.727-.355,7.171,7.171,0,0,0-6.208-3.587A7.289,7.289,0,0,0,17.5,27.384a.694.694,0,0,1-.723.348A33.7,33.7,0,0,1,4.547,22.8l-2.09-1.454a.622.622,0,0,1-.283-.529C2.109,19.691,2,16.078,2,16.078a8.356,8.356,0,0,1,8.293-8.394h4.288A6.463,6.463,0,0,1,20.937,2h5.615A6.463,6.463,0,0,1,32.908,7.684ZM44.771,25.529l-.087.044A37.149,37.149,0,0,1,29.447,31.3a1.639,1.639,0,0,1-1.785-1.19,3.951,3.951,0,0,0-3.874-3h-.065a3.951,3.951,0,0,0-3.874,3,1.639,1.639,0,0,1-1.785,1.19A37.149,37.149,0,0,1,2.827,25.573a.4.4,0,0,0-.414-.044.46.46,0,0,0-.2.375L2.37,37.139a8.318,8.318,0,0,0,8.271,8.372H36.848a8.318,8.318,0,0,0,8.271-8.372L45.293,25.9a.46.46,0,0,0-.2-.375A.343.343,0,0,0,44.771,25.529ZM25.377,34.76a1.633,1.633,0,1,1-3.265,0V31.918a1.633,1.633,0,1,1,3.265,0Z" transform="translate(-2 -2)" fill="#fff" fill-rule="evenodd"/>
</svg>
