<svg xmlns="http://www.w3.org/2000/svg" width="11.419" height="12.688" viewBox="0 0 11.419 12.688">
  <path id="calendar.3" d="M11.508,2.488v.476a2.978,2.978,0,0,1,2.9,3.154l.007,5.345a3,3,0,0,1-3.253,3.219l-4.9.006a3.033,3.033,0,0,1-3.261-3.248L3,6.157A2.975,2.975,0,0,1,5.859,2.971V2.5a.482.482,0,1,1,.965,0v.444l3.72-.005V2.489a.482.482,0,1,1,.965,0ZM3.965,6.353l9.483-.013V6.118a1.965,1.965,0,0,0-1.939-2.185v.488a.482.482,0,1,1-.965,0V3.909l-3.72.005v.513a.482.482,0,1,1-.965,0V3.94a1.95,1.95,0,0,0-1.9,2.215Zm6.8,2.882v.007a.516.516,0,0,0,.533.507.523.523,0,1,0-.533-.514Zm.517,2.847a.538.538,0,0,1-.521-.538.528.528,0,0,1,.513-.54h.006a.539.539,0,0,1,0,1.079Zm-3.1-2.837A.517.517,0,1,0,8.7,8.7.541.541,0,0,0,8.184,9.245Zm.542,2.808a.522.522,0,0,1-.539-.507A.542.542,0,0,1,8.7,11a.527.527,0,0,1,.026,1.053ZM5.6,9.267a.517.517,0,1,0,.512-.546A.541.541,0,0,0,5.6,9.267Zm.542,2.789a.521.521,0,0,1-.539-.507A.541.541,0,0,1,6.119,11a.527.527,0,0,1,.026,1.053Z" transform="translate(-3 -2)" fill="#000c2e" fill-rule="evenodd"/>
</svg>
