<svg xmlns="http://www.w3.org/2000/svg" width="11.419" height="11.419" viewBox="0 0 11.419 11.419">
  <path id="more-square.4" d="M5.237,2h4.95a3.131,3.131,0,0,1,3.232,3.38v4.665a3.129,3.129,0,0,1-3.232,3.374H5.237A3.133,3.133,0,0,1,2,10.044V5.38A3.135,3.135,0,0,1,5.237,2ZM5.152,8.394a.685.685,0,1,1,.685-.685A.687.687,0,0,1,5.152,8.394Zm1.873-.685a.685.685,0,1,0,.685-.685A.687.687,0,0,0,7.024,7.709Zm2.558,0a.682.682,0,1,0,.685-.685A.687.687,0,0,0,9.582,7.709Z" transform="translate(-2 -2)" fill="#fff" fill-rule="evenodd"/>
</svg>
