<svg xmlns="http://www.w3.org/2000/svg" width="237.465" height="155.264" viewBox="0 0 237.465 155.264">
  <g id="Group_47" data-name="Group 47" transform="translate(-171.808 -222.403)">
    <g id="Group_43" data-name="Group 43" transform="translate(171.808 222.403)">
      <rect id="Rectangle_113" data-name="Rectangle 113" width="26.244" height="0.5" transform="translate(113.973 10.247)" fill="#ccc"/>
      <rect id="Rectangle_114" data-name="Rectangle 114" width="83.23" height="0.5" transform="translate(10.247 10.247)" fill="#ccc"/>
      <circle id="Ellipse_115" data-name="Ellipse 115" cx="10.247" cy="10.247" r="10.247" transform="translate(0 0.25)" fill="#31c88e"/>
      <circle id="Ellipse_116" data-name="Ellipse 116" cx="10.247" cy="10.247" r="10.247" transform="translate(46.739 0.25)" fill="#3f3d56"/>
      <path id="Path_748" data-name="Path 748" d="M845.639,204.623a10.5,10.5,0,1,1,10.5-10.5A10.5,10.5,0,0,1,845.639,204.623Zm0-20.5a10,10,0,1,0,10,10A10,10,0,0,0,845.639,184.128Z" transform="translate(-741.916 -183.628)" fill="#ccc"/>
      <path id="Path_749" data-name="Path 749" d="M1032.64,204.623a10.5,10.5,0,1,1,10.5-10.5A10.5,10.5,0,0,1,1032.64,204.623Zm0-20.5a10,10,0,1,0,10,10A10,10,0,0,0,1032.64,184.128Z" transform="translate(-882.177 -183.628)" fill="#ccc"/>
      <path id="Path_395" data-name="Path 395" d="M297.176,221.086a.83.83,0,0,1-.5-.166l-.009-.007-1.881-1.439a.836.836,0,1,1,1.017-1.327l1.218.934,2.878-3.756a.836.836,0,0,1,1.171-.155h0l-.018.025.018-.025a.836.836,0,0,1,.154,1.172l-3.386,4.415a.836.836,0,0,1-.665.326Z" transform="translate(-287.717 -207.533)" fill="#fff"/>
    </g>
    <g id="Group_24" data-name="Group 24" transform="translate(348.237 222.404)">
      <path id="Path_552" data-name="Path 552" d="M299.509,514.6a3.943,3.943,0,0,1,.551.307l17.512-7.474.625-4.613,7-.043-.413,10.581-23.114,6.113a4.146,4.146,0,0,1-.175.471,4,4,0,1,1-1.983-5.342Z" transform="translate(-293.877 -460.262)" fill="#feb8b8"/>
      <path id="Path_553" data-name="Path 553" d="M294.419,749.791h-4.787l-2.277-18.463h7.064Z" transform="translate(-260.557 -599.579)" fill="#feb8b8"/>
      <path id="Path_554" data-name="Path 554" d="M290.543,775.11h9.231v5.811H284.73a5.813,5.813,0,0,1,5.813-5.812h0Z" transform="translate(-264.886 -626.266)" fill="#2f2e41"/>
      <path id="Path_555" data-name="Path 555" d="M248.518,746.468l-4.763.469-4.076-18.151,7.031-.691Z" transform="translate(-196.04 -597.609)" fill="#feb8b8"/>
      <path id="Path_556" data-name="Path 556" d="M241.2,772.316l9.185-.9.57,5.783-14.968,1.474a5.811,5.811,0,0,1,5.213-6.353Z" transform="translate(-197.026 -624.012)" fill="#2f2e41"/>
      <circle id="Ellipse_84" data-name="Ellipse 84" cx="9.589" cy="9.589" r="9.589" transform="translate(25.605 3.795)" fill="#feb8b8"/>
      <path id="Path_557" data-name="Path 557" d="M249,663.692a1.747,1.747,0,0,1-1.724-1.445C244.8,648.5,236.7,603.526,236.51,602.279a.552.552,0,0,1-.006-.087v-3.353a.582.582,0,0,1,.109-.341l1.07-1.5a.577.577,0,0,1,.447-.244c6.1-.286,26.075-1.124,27.04.081h0c.969,1.21.625,4.883.547,5.607l0,.075,8.975,57.394a1.762,1.762,0,0,1-1.451,2l-5.605.923a1.765,1.765,0,0,1-1.962-1.208c-1.734-5.54-7.547-24.175-9.561-31.386a.194.194,0,0,0-.383.055c.1,6.874.344,24.411.43,30.469l.009.652a1.764,1.764,0,0,1-1.6,1.771l-5.4.49A1.621,1.621,0,0,1,249,663.692Z" transform="translate(-220.999 -517.214)" fill="#2f2e41"/>
      <path id="Path_99" data-name="Path 99" d="M262.109,460.995a8.015,8.015,0,0,0-3.25,4.686,44.386,44.386,0,0,0-1.907,10.6l-.608,10.775-7.518,28.568c6.516,5.513,10.274,4.26,19.046-.25s9.774,1.5,9.774,1.5l1.754-24.308,2.506-26.562a11.78,11.78,0,0,0-1.9-1.825,19.389,19.389,0,0,0-16.571-3.514Z" transform="translate(-233 -434.25)" fill="#e6e6e6"/>
      <path id="Path_558" data-name="Path 558" d="M245.444,526.629a4.115,4.115,0,0,1,.586.273l17.316-8.668.287-4.7,7.143-.492.383,10.7-23.14,7.653a4.1,4.1,0,1,1-2.574-4.776Z" transform="translate(-218.777 -466.523)" fill="#feb8b8"/>
      <path id="Path_101" data-name="Path 101" d="M245.471,474.738c4.26,1.5,5.011,17.794,5.011,17.794-5.012-2.757-11.026,1.754-11.026,1.754s-1.253-4.26-2.757-9.773a9.578,9.578,0,0,1,2-9.022S241.21,473.233,245.471,474.738Z" transform="translate(-196.69 -442.856)" fill="#e6e6e6"/>
      <path id="Path_102" data-name="Path 102" d="M276.428,409.809c-1.195-.956-2.825.781-2.825.781l-.956-8.6s-5.974.716-9.8-.239-4.421,3.466-4.421,3.466a30.681,30.681,0,0,1-.12-5.377c.239-2.151,3.345-4.3,8.841-5.735s8.364,4.779,8.364,4.779C279.34,400.794,277.624,410.765,276.428,409.809Z" transform="translate(-232.637 -393.889)" fill="#2f2e41"/>
    </g>
    <rect id="Rectangle_110" data-name="Rectangle 110" width="204.468" height="0.607" transform="translate(204.805 377.06)" fill="#e6e6e6"/>
    <path id="Path_438" data-name="Path 438" d="M263.6,607.016a5.4,5.4,0,0,0,5.215-.919c1.827-1.533,2.4-4.058,2.865-6.4l1.378-6.917-2.885,1.987a21.019,21.019,0,0,0-5.633,4.973c-1.437,2.069-2.064,4.894-.909,7.133" transform="translate(-39.067 -240.679)" fill="#e6e6e6"/>
    <path id="Path_439" data-name="Path 439" d="M266.207,673.541a34.722,34.722,0,0,1-.482-8,12.58,12.58,0,0,1,2.426-6.6,10.974,10.974,0,0,1,2.815-2.551c.281-.178.541.268.26.445a10.433,10.433,0,0,0-4.127,4.979,16.714,16.714,0,0,0-.887,7.2c.094,1.468.292,2.926.492,4.383a.267.267,0,0,1-.18.317.26.26,0,0,1-.317-.18Z" transform="translate(-41.232 -298.349)" fill="#f2f2f2"/>
    <path id="Path_442" data-name="Path 442" d="M289.28,702.263a3.975,3.975,0,0,0,3.464,1.788c1.753-.083,3.215-1.307,4.531-2.468l3.892-3.436-2.576-.123a15.479,15.479,0,0,0-5.518.4,5.251,5.251,0,0,0-3.714,3.771" transform="translate(-61.69 -331.316)" fill="#e6e6e6"/>
    <path id="Path_443" data-name="Path 443" d="M262.8,726.716c1.747-3.093,3.776-6.532,7.4-7.63a8.26,8.26,0,0,1,3.112-.321c.331.028.248.538-.083.509a7.671,7.671,0,0,0-4.967,1.314,12.907,12.907,0,0,0-3.414,3.684c-.565.86-1.072,1.758-1.578,2.655C263.108,727.212,262.636,727.006,262.8,726.716Z" transform="translate(-38.85 -350.003)" fill="#f2f2f2"/>
    <g id="Group_46" data-name="Group 46" transform="translate(258.012 262.498)">
      <path id="Path_138" data-name="Path 138" d="M678.831,557.825H591.294a1.623,1.623,0,0,1-1.621-1.621V534.49a1.623,1.623,0,0,1,1.621-1.621h87.537a1.623,1.623,0,0,1,1.621,1.621V556.2A1.623,1.623,0,0,1,678.831,557.825Zm-87.537-24.308a.974.974,0,0,0-.973.973V556.2a.974.974,0,0,0,.973.973h87.537a.974.974,0,0,0,.973-.973V534.49a.974.974,0,0,0-.973-.973Z" transform="translate(-589.673 -532.869)" fill="#e6e6e6"/>
      <path id="Path_139" data-name="Path 139" d="M687.5,556.72a1.1,1.1,0,0,0,0,2.2h51.883a1.1,1.1,0,0,0,0-2.2Z" transform="translate(-657.027 -549.477)" fill="#e6e6e6"/>
      <path id="Path_140" data-name="Path 140" d="M687.5,578.466a1.1,1.1,0,0,0,0,2.2h22.325a1.1,1.1,0,0,0,0-2.2Z" transform="translate(-657.027 -564.62)" fill="#e6e6e6"/>
      <g id="Group_45" data-name="Group 45" transform="translate(8.681 4.991)">
        <circle id="Ellipse_18" data-name="Ellipse 18" cx="6.603" cy="6.603" r="6.603" fill="#e6e6e6"/>
        <path id="Path_395-2" data-name="Path 395" d="M297.8,222.5a1.023,1.023,0,0,1-.615-.2l-.011-.008-2.318-1.773a1.03,1.03,0,0,1,1.253-1.636l1.5,1.151,3.547-4.628a1.03,1.03,0,0,1,1.443-.191h0l-.022.031.023-.031a1.031,1.031,0,0,1,.191,1.444l-4.172,5.444a1.03,1.03,0,0,1-.819.4Z" transform="translate(-292.239 -212.223)" fill="#31c88e"/>
      </g>
    </g>
  </g>
</svg>
