<svg xmlns="http://www.w3.org/2000/svg" width="12.523" height="17.393" viewBox="0 0 12.523 17.393">
  <g id="Group_3269" data-name="Group 3269" transform="translate(-59 -680)">
    <path id="Path_12788" data-name="Path 12788" d="M265.124,809.291a.708.708,0,0,0-.868.5c-1.3,5.033-.933,6.313,1.773,7.032,2.825.751,3.754-.289,5.268-5.893s1.233-6.966-1.592-7.716c-1.675-.445-2.684-.26-3.543,1.133a.648.648,0,0,0,.421.955l.023.006a.791.791,0,0,0,.847-.349,2.354,2.354,0,0,1,.189-.246.752.752,0,0,1,.482-.291,4.556,4.556,0,0,1,2.341.623.741.741,0,0,1,.271.49,5.137,5.137,0,0,1-.056,1.719,42.746,42.746,0,0,1-1.771,6.554,5.177,5.177,0,0,1-.817,1.517.749.749,0,0,1-.482.29,4.564,4.564,0,0,1-2.341-.622.742.742,0,0,1-.271-.49,5.141,5.141,0,0,1,.057-1.719c.108-.7.3-1.566.574-2.63A.709.709,0,0,0,265.124,809.291Z" transform="translate(-200.682 -123)" fill="#0b5191"/>
    <path id="Path_12789" data-name="Path 12789" d="M260.867,820.284a3.138,3.138,0,0,0,1.213.153.751.751,0,0,0,.482-.291,2.33,2.33,0,0,0,.189-.245.791.791,0,0,1,.847-.349l.023.005a.648.648,0,0,1,.421.955c-.859,1.393-1.868,1.578-3.543,1.133-2.825-.751-3.106-2.113-1.592-7.716s2.443-6.643,5.268-5.893c2.706.719,3.078,2,1.773,7.032a.71.71,0,0,1-1.373-.362c.276-1.065.466-1.926.574-2.631a5.14,5.14,0,0,0,.057-1.719.742.742,0,0,0-.271-.49,4.564,4.564,0,0,0-2.341-.622.749.749,0,0,0-.482.29,5.177,5.177,0,0,0-.817,1.517,42.745,42.745,0,0,0-1.771,6.554,5.137,5.137,0,0,0-.056,1.719.741.741,0,0,0,.271.491A3.136,3.136,0,0,0,260.867,820.284Z" transform="translate(-199 -124.467)" fill="#0b5191"/>
  </g>
</svg>
