<svg xmlns="http://www.w3.org/2000/svg" width="30.181" height="28.672" viewBox="0 0 30.181 28.672">
  <path id="filter.2" d="M2,8.1a5.678,5.678,0,0,0,11.355,0A5.683,5.683,0,0,0,6.4,2.644a1.312,1.312,0,0,0-1,1.577,1.328,1.328,0,0,0,1.6.981,3.052,3.052,0,0,1,.671-.074A2.973,2.973,0,1,1,4.7,7.61a1.331,1.331,0,0,0-2.626-.433A5.506,5.506,0,0,0,2,8.1ZM19.932,9.418H30.849a1.314,1.314,0,1,0,0-2.629H19.932a1.314,1.314,0,1,0,0,2.629ZM14.25,26.881H3.331a1.314,1.314,0,1,1,0-2.628H14.25a1.314,1.314,0,1,1,0,2.628Zm6.576-1.314a5.678,5.678,0,0,0,11.355,0,5.491,5.491,0,0,0-.078-.927,1.331,1.331,0,0,0-1.532-1.081,1.317,1.317,0,0,0-1.094,1.514,3.012,3.012,0,1,1-5.988.494,3.055,3.055,0,0,1,3.693-2.9,1.334,1.334,0,0,0,1.594-.99,1.314,1.314,0,0,0-1-1.572,5.821,5.821,0,0,0-1.268-.14A5.646,5.646,0,0,0,20.826,25.567Z" transform="translate(-2 -2.5)" fill="#c4c6cc" fill-rule="evenodd"/>
</svg>
