<svg xmlns="http://www.w3.org/2000/svg" width="279.376" height="167.015" viewBox="0 0 279.376 167.015">
  <g id="undraw_Login_re_4vu2" transform="translate(0 0)">
    <path id="Path_17263" data-name="Path 17263" d="M819.951,591.146a14.436,14.436,0,0,1-5.18-12.445,11.67,11.67,0,0,1,8.676-9.908c4.578-.987,9.8,1.745,11.186,6.217.765-8.621,1.647-17.6,6.23-24.945a26.417,26.417,0,0,1,19.129-12.255,23.7,23.7,0,0,1,20.851,8.512,21.512,21.512,0,0,1,2.645,22.148c-2.507,5.2-7.125,9.071-11.964,12.219a77.214,77.214,0,0,1-52.81,11.553Z" transform="translate(-606.054 -426.007)" fill="#f2f2f2"/>
    <path id="Path_17264" data-name="Path 17264" d="M917.465,545.635a127.408,127.408,0,0,0-37.436,50.621c-.357.875,1.064,1.256,1.417.391A125.99,125.99,0,0,1,918.5,546.674c.734-.6-.311-1.631-1.039-1.039Z" transform="translate(-650.379 -431.29)" fill="#fff"/>
    <path id="Path_17265" data-name="Path 17265" d="M254.936,546.368c4.913-4.151,7.9-10.709,7.114-17.093s-5.63-12.253-11.917-13.608-13.454,2.4-15.364,8.539c-1.051-11.841-2.262-24.178-8.557-34.261a36.285,36.285,0,0,0-26.273-16.832c-10.7-1.169-21.966,3.246-28.639,11.691s-8.307,20.724-3.633,30.42c3.443,7.143,9.786,12.458,16.432,16.783a106.054,106.054,0,0,0,72.534,15.868" transform="translate(-165 -382.05)" fill="#f2f2f2"/>
    <path id="Path_17266" data-name="Path 17266" d="M213.825,483.859a173.519,173.519,0,0,1,24.182,24.012,174.021,174.021,0,0,1,27.236,45.515c.49,1.2-1.461,1.725-1.946.536a173.047,173.047,0,0,0-50.9-68.637c-1.008-.82.428-2.241,1.427-1.427Z" transform="translate(-196.944 -389.307)" fill="#fff"/>
    <path id="Path_17267" data-name="Path 17267" d="M541.71,356.594H424.5V236.333a46.455,46.455,0,0,1,46.4-46.4h24.405a46.455,46.455,0,0,1,46.4,46.4Z" transform="translate(-341.169 -189.931)" fill="#f2f2f2"/>
    <path id="Path_17268" data-name="Path 17268" d="M517.3,356.6H424.5V236.336a46.043,46.043,0,0,1,8.862-27.278c.213-.291.426-.577.645-.861a46.391,46.391,0,0,1,9.876-9.586c.212-.154.424-.306.64-.457a46.294,46.294,0,0,1,10.106-5.285c.212-.08.428-.161.644-.238a46.249,46.249,0,0,1,9.99-2.356c.211-.029.428-.051.645-.074a46.978,46.978,0,0,1,9.989,0c.216.023.433.045.647.074a46.24,46.24,0,0,1,9.987,2.355c.216.077.432.158.645.238a46.176,46.176,0,0,1,9.989,5.207c.216.148.432.3.644.451a46.88,46.88,0,0,1,5.9,5A46.328,46.328,0,0,1,507.8,208.2c.219.283.431.569.644.86a46.043,46.043,0,0,1,8.862,27.278Z" transform="translate(-341.169 -189.933)" fill="#ccc"/>
    <circle id="Ellipse_670" data-name="Ellipse 670" cx="5.138" cy="5.138" r="5.138" transform="translate(163.451 102.599)" fill="#31c88e"/>
    <path id="Path_17269" data-name="Path 17269" d="M582.316,475.68h-3.937l-1.873-15.185h5.811Z" transform="translate(-391.377 -312.62)" fill="#ffb8b8"/>
    <path id="Path_17270" data-name="Path 17270" d="M563.476,504.28h7.593v4.781H558.7A4.781,4.781,0,0,1,563.476,504.28Z" transform="translate(-379.286 -342.344)" fill="#2f2e41"/>
    <path id="Path_17271" data-name="Path 17271" d="M643.316,475.68h-3.937l-1.873-15.185h5.811Z" transform="translate(-432.789 -312.62)" fill="#ffb8b8"/>
    <path id="Path_17272" data-name="Path 17272" d="M624.476,504.28h7.593v4.781H619.7A4.781,4.781,0,0,1,624.476,504.28Z" transform="translate(-420.697 -342.344)" fill="#2f2e41"/>
    <path id="Path_17273" data-name="Path 17273" d="M696.839,439.864a3.45,3.45,0,0,1,1.448-5.088l13.383-36.886,6.585,3.594-15.281,35.25a3.468,3.468,0,0,1-6.136,3.13Z" transform="translate(-525.65 -331.109)" fill="#ffb8b8"/>
    <path id="Path_17274" data-name="Path 17274" d="M803.608,456.685a3.45,3.45,0,0,1-.929-5.208l-4.146-39.019,7.494.342,1.723,38.381a3.468,3.468,0,0,1-4.142,5.5Z" transform="translate(-595.092 -340.999)" fill="#ffb8b8"/>
    <circle id="Ellipse_671" data-name="Ellipse 671" cx="7.887" cy="7.887" r="7.887" transform="translate(188.674 44.174)" fill="#ffb8b8"/>
    <path id="Path_17275" data-name="Path 17275" d="M763.911,429.628H740.133l.029-.185c.043-.277,4.238-27.757,1.144-36.748a3.793,3.793,0,0,1,1.949-4.683h0c4.422-2.083,12.912-4.647,20.077,1.576a9.067,9.067,0,0,1,3.038,7.513Z" transform="translate(-555.445 -322.817)" fill="#31c88e"/>
    <path id="Path_17276" data-name="Path 17276" d="M731.723,411.322l-10.7-2.172,5.018-11.891a4.495,4.495,0,0,1,8.7,2.247Z" transform="translate(-542.468 -328.391)" fill="#31c88e"/>
    <path id="Path_17277" data-name="Path 17277" d="M795.5,417.114l-.644-14.753c-.488-2.773,1.1-5.395,3.541-5.823s4.827,1.5,5.317,4.29l2.419,13.785Z" transform="translate(-592.538 -330.151)" fill="#31c88e"/>
    <path id="Path_17278" data-name="Path 17278" d="M760.412,517.049c3.826,14.571,4.243,33.1,3.211,53.306l-5.138-.642-9.312-38.535-5.138,39.177-5.78-.321c-1.727-21.2-3.408-39.406-.642-51.38Z" transform="translate(-552.737 -412.004)" fill="#2f2e41"/>
    <path id="Path_17279" data-name="Path 17279" d="M762.284,333.791a2.548,2.548,0,0,1-4.4-1.415,2.578,2.578,0,0,1,0-.5c.1-.948.647-1.81.516-2.811a1.474,1.474,0,0,0-.27-.69c-1.172-1.57-3.925.7-5.031-.719-.679-.872.119-2.244-.4-3.218-.687-1.286-2.723-.651-4-1.356-1.42-.783-1.335-2.962-.4-4.288a6.745,6.745,0,0,1,5.113-2.6,13.716,13.716,0,0,1,5.778,1.128,11.547,11.547,0,0,1,5.459,3.785,9.241,9.241,0,0,1,.934,7.868A14.831,14.831,0,0,1,762.284,333.791Z" transform="translate(-560.526 -275.634)" fill="#2f2e41"/>
    <path id="Path_17280" data-name="Path 17280" d="M502.96,707.957H265.878a.382.382,0,1,1,0-.765H502.96a.382.382,0,1,1,0,.765Z" transform="translate(-233.224 -541.088)" fill="#3f3d56"/>
    <path id="Path_17281" data-name="Path 17281" d="M541.333,394.731H499.587a2.076,2.076,0,0,1-2.087-2.06v-93.18a2.076,2.076,0,0,1,2.087-2.06h41.746a2.076,2.076,0,0,1,2.087,2.06v93.18A2.076,2.076,0,0,1,541.333,394.731Z" transform="translate(-390.727 -262.91)" fill="#fff"/>
    <rect id="Rectangle_3130" data-name="Rectangle 3130" width="45.92" height="0.642" transform="translate(106.773 64.671)" fill="#ccc"/>
    <rect id="Rectangle_3131" data-name="Rectangle 3131" width="45.92" height="0.642" transform="translate(106.934 101.314)" fill="#ccc"/>
    <rect id="Rectangle_3132" data-name="Rectangle 3132" width="0.642" height="97.621" transform="translate(121.224 34.521)" fill="#ccc"/>
    <rect id="Rectangle_3133" data-name="Rectangle 3133" width="0.642" height="97.621" transform="translate(137.28 34.521)" fill="#ccc"/>
  </g>
</svg>
