<svg xmlns="http://www.w3.org/2000/svg" width="23.75" height="25" viewBox="0 0 23.75 25">
  <path id="home.2" d="M10.8,25.478V21.644a1.773,1.773,0,0,1,1.768-1.767h3.593a1.773,1.773,0,0,1,1.78,1.767v3.822A1.539,1.539,0,0,0,19.479,27H21.93a4.325,4.325,0,0,0,3.054-1.249,4.263,4.263,0,0,0,1.266-3.029V11.832a3.091,3.091,0,0,0-1.119-2.378L16.8,2.843a3.894,3.894,0,0,0-4.947.089L3.709,9.454A3.093,3.093,0,0,0,2.5,11.832V22.711A4.3,4.3,0,0,0,6.82,27h2.4a1.539,1.539,0,0,0,1.091-.442,1.517,1.517,0,0,0,.453-1.08Z" transform="translate(-2.5 -2)" fill="#fff"/>
</svg>
