<svg xmlns="http://www.w3.org/2000/svg" width="11.764" height="13.84" viewBox="0 0 11.764 13.84">
  <path id="location.2" d="M9.4,2A5.89,5.89,0,0,0,3.5,7.7l0,.2a7.429,7.429,0,0,0,1.516,4.264l.219.286a14.365,14.365,0,0,0,3.137,2.945l.286.193.042.033a1.17,1.17,0,0,0,1.364,0l.035-.029a14.617,14.617,0,0,0,2.591-2.141,8.367,8.367,0,0,0,2.574-5.461V7.918A5.892,5.892,0,0,0,9.578,2Zm0,1.05a4.842,4.842,0,0,1,4.816,4.7l0,.229a7.362,7.362,0,0,1-2.284,4.746,13.566,13.566,0,0,1-2.41,1.99l-.059.044a.125.125,0,0,1-.165,0l-.057-.043A13.323,13.323,0,0,1,5.85,11.53a6.368,6.368,0,0,1-1.29-3.4l-.013-.247a4.843,4.843,0,0,1,4.685-4.83ZM9.382,5.738a2.248,2.248,0,1,0,2.241,2.248A2.244,2.244,0,0,0,9.382,5.738Zm0,1.05a1.2,1.2,0,1,1-1.194,1.2A1.2,1.2,0,0,1,9.382,6.788Z" transform="translate(-3.5 -2)" fill="#200e32" fill-rule="evenodd"/>
</svg>
