<svg xmlns="http://www.w3.org/2000/svg" width="219.273" height="142.156" viewBox="0 0 219.273 142.156">
  <g id="undraw_Notify_re_65on" transform="translate(0 -0.047)">
    <path id="Path_17166" data-name="Path 17166" d="M909.263,654.018,903,635.119s6.889,6.889,6.889,12.541l-1.236-13.071a19.947,19.947,0,0,1,3.179,12.011C911.478,653.841,909.263,654.018,909.263,654.018Z" transform="translate(-709.262 -512.235)" fill="#e6e6e6"/>
    <path id="Path_17167" data-name="Path 17167" d="M425.112,593.234,419,574.789s6.723,6.723,6.723,12.239l-1.207-12.756a19.467,19.467,0,0,1,3.1,11.722C427.274,593.061,425.112,593.234,425.112,593.234Z" transform="translate(-359.602 -468.66)" fill="#e6e6e6"/>
    <path id="Path_17168" data-name="Path 17168" d="M507.034,634.924c.01,12.134-24.055,8.4-53.516,8.427s-53.163,3.8-53.173-8.335,24.046-14.793,53.507-14.819S507.023,622.79,507.034,634.924Z" transform="translate(-346.124 -501.838)" fill="#e6e6e6"/>
    <rect id="Rectangle_3125" data-name="Rectangle 3125" width="219.273" height="0.555" transform="translate(0 141.505)" fill="#3f3d56"/>
    <path id="Path_17169" data-name="Path 17169" d="M490.54,381.653h-3.852L484.855,366.8h5.685Z" transform="translate(-350.278 -264.954)" fill="#ffb8b8"/>
    <path id="Path_17170" data-name="Path 17170" d="M468.946,416.357H476.8v4.677H464.7v-.428a4.249,4.249,0,0,1,4.249-4.249Z" transform="translate(-335.715 -300.758)" fill="#2f2e41"/>
    <path id="Path_17171" data-name="Path 17171" d="M592.54,460.653h-3.852L586.855,445.8h5.685Z" transform="translate(-423.967 -322.027)" fill="#ffb8b8"/>
    <path id="Path_17172" data-name="Path 17172" d="M570.946,495.357H578.8v4.677H566.7v-.428a4.249,4.249,0,0,1,4.249-4.249Z" transform="translate(-409.404 -357.831)" fill="#2f2e41"/>
    <path id="Path_17173" data-name="Path 17173" d="M836.081,428.119a2.863,2.863,0,0,0-.8-4.316l-8.946-36.442-5.72,2.461,10.64,35.236a2.879,2.879,0,0,0,4.829,3.061Z" transform="translate(-649.741 -333.628)" fill="#ffb8b8"/>
    <path id="Path_17174" data-name="Path 17174" d="M802.587,266.321a3.159,3.159,0,0,0-4.834.32l-13.846,1.59,2.106,5.341,12.592-2.357a3.176,3.176,0,0,0,3.981-4.893Z" transform="translate(-623.225 -245.48)" fill="#ffb8b8"/>
    <path id="Path_17175" data-name="Path 17175" d="M769,509.752l6.042,45.346,7.52-1.548s-1.106-33.025,2.654-37.006-4.836-10.956-4.836-10.956Z" transform="translate(-612.455 -419.041)" fill="#2f2e41"/>
    <path id="Path_17176" data-name="Path 17176" d="M710.748,463.6l-2.776,4.163s-21.372-8.882-21.372,5.274-1.223,23.762-1.665,24.425,5.118,2.385,7.772,1.943c0,0,3.274-22.821,3.053-24.148,0,0,20.965,10.279,24.946,9.394s4.922-4.017,5.585-5.786-.278-15.821-.278-15.821L712.744,459Z" transform="translate(-551.706 -385.382)" fill="#2f2e41"/>
    <path id="Path_17177" data-name="Path 17177" d="M761.178,301.77l-.791-.949s-8.861-19.937-5.38-25.317,18.671-6.171,19.146-5.854-1.134,4.425-.026,6.324c0,0-11.767,2.551-12.558,2.868s6.1,12.011,6.1,12.011l-.791,7.12Z" transform="translate(-601.761 -248.546)" fill="#ccc"/>
    <path id="Path_17178" data-name="Path 17178" d="M785.518,347.3s-8.228.949-8.544.949-.475-2.057-.475-2.057l-7.279,9.968s-3.586,28.919-2.636,28.445,18.459,2.252,18.618.986-.158-7.595.316-7.911,8.228-19.937,8.228-19.937-.791-4.114-3.481-5.538S785.518,347.3,785.518,347.3Z" transform="translate(-610.594 -303.888)" fill="#ccc"/>
    <path id="Path_17179" data-name="Path 17179" d="M840.5,378.118l2.532,2.69s3.762,30.909,1.7,31.858-6.106.833-6.106.833l-3.984-14.653Z" transform="translate(-659.88 -326.951)" fill="#ccc"/>
    <circle id="Ellipse_661" data-name="Ellipse 661" cx="7.283" cy="7.283" r="7.283" transform="translate(159.734 26.891)" fill="#ffb8b8"/>
    <path id="Path_17180" data-name="Path 17180" d="M779.53,286.055c-.1-1.511-2-1.563-3.519-1.577s-3.325.04-4.182-1.209a2.822,2.822,0,0,1,.01-2.855,8.116,8.116,0,0,1,1.994-2.22,27.642,27.642,0,0,1,6.315-4.448,10.127,10.127,0,0,1,7.53-.651c2.989,1.067,7.031,6.558,7.379,9.712a11.441,11.441,0,0,1-3.037,8.728c-2.125,2.357-6.99,1.406-10.051,2.245,1.861-2.634.634-7.42-2.347-8.65Z" transform="translate(-614.222 -250.744)" fill="#2f2e41"/>
    <circle id="Ellipse_662" data-name="Ellipse 662" cx="17.483" cy="17.483" r="17.483" transform="translate(82.917 94.548)" fill="#ff6464"/>
    <path id="Path_17181" data-name="Path 17181" d="M418.922,287.2a12.535,12.535,0,0,1-11.451-7.435L379.729,217.29a16.607,16.607,0,1,1,31.051-11.62l20.089,65.341a12.512,12.512,0,0,1-11.946,16.19Z" transform="translate(-330.198 -193.896)" fill="#ff6464"/>
  </g>
</svg>
