<svg xmlns="http://www.w3.org/2000/svg" width="25.975" height="25" viewBox="0 0 25.975 25">
  <path id="logout.3" d="M11.869,13.537a.963.963,0,1,0,0,1.925H19.5v5.975A5.616,5.616,0,0,1,13.841,27H7.647A5.6,5.6,0,0,1,2,21.45V7.562A5.616,5.616,0,0,1,7.66,2h6.206A5.6,5.6,0,0,1,19.5,7.55v5.987Zm12.169-3.362,3.65,3.637a.955.955,0,0,1,.288.688.927.927,0,0,1-.288.675l-3.65,3.637a.963.963,0,1,1-1.363-1.362l2-1.988H19.5V13.538h5.175l-2-1.987a.966.966,0,0,1,0-1.362A.955.955,0,0,1,24.038,10.175Z" transform="translate(-2 -2)" fill="#fff" fill-rule="evenodd"/>
</svg>
