<svg xmlns="http://www.w3.org/2000/svg" width="146.632" height="180.384" viewBox="0 0 146.632 180.384">
  <g id="undraw_access_denied_re_awnf" transform="translate(-41.368 0)">
    <path id="Path_968" data-name="Path 968" d="M588.964,136.481h-.987V109.392A15.678,15.678,0,0,0,572.3,93.713H514.9a15.679,15.679,0,0,0-15.679,15.679V258.006A15.679,15.679,0,0,0,514.9,273.684H572.3a15.678,15.678,0,0,0,15.678-15.678V155.764h.988Z" transform="translate(-430.744 -93.714)" fill="#3f3d56"/>
    <path id="Path_969" data-name="Path 969" d="M594.144,116.419V267.133a11.891,11.891,0,0,1-11.885,11.889H523.686a11.893,11.893,0,0,1-11.895-11.891V116.419a11.893,11.893,0,0,1,11.894-11.889h7.1a5.654,5.654,0,0,0,5.231,7.784h33.392a5.654,5.654,0,0,0,5.231-7.784h7.611a11.891,11.891,0,0,1,11.889,11.885Z" transform="translate(-440.128 -101.791)" fill="#fff"/>
    <circle id="Ellipse_18" data-name="Ellipse 18" cx="24.453" cy="24.453" r="24.453" transform="translate(88.376 26.225)" fill="#31c88e"/>
    <path id="Path_39" data-name="Path 39" d="M623.34,450.552H571.293a.965.965,0,0,1-.964-.964v-12.91a.965.965,0,0,1,.964-.964H623.34a.965.965,0,0,1,.964.964v12.911a.965.965,0,0,1-.964.964ZM571.293,436.1a.579.579,0,0,0-.578.578v12.911a.579.579,0,0,0,.578.578H623.34a.579.579,0,0,0,.578-.578V436.677a.579.579,0,0,0-.578-.578Z" transform="translate(-483.843 -349.111)" fill="#e6e6e6"/>
    <path id="Path_40" data-name="Path 40" d="M635.709,454.074a.675.675,0,0,0,0,1.349h31.807a.675.675,0,1,0,.052-1.349H635.709Z" transform="translate(-532.163 -362.822)" fill="#e6e6e6"/>
    <path id="Path_41" data-name="Path 41" d="M635.709,470.058a.675.675,0,0,0,0,1.349h31.807a.675.675,0,1,0,.052-1.349H635.709Z" transform="translate(-532.163 -374.758)" fill="#e6e6e6"/>
    <path id="Path_42" data-name="Path 42" d="M623.34,535.532H571.293a.965.965,0,0,1-.964-.964v-12.91a.965.965,0,0,1,.964-.964H623.34a.965.965,0,0,1,.964.964v12.911a.965.965,0,0,1-.964.963Zm-52.047-14.453a.579.579,0,0,0-.578.578v12.911a.579.579,0,0,0,.578.578H623.34a.579.579,0,0,0,.578-.578V521.658a.579.579,0,0,0-.578-.578Z" transform="translate(-483.843 -412.572)" fill="#e6e6e6"/>
    <path id="Path_43" data-name="Path 43" d="M635.709,539.33a.675.675,0,0,0,0,1.349h31.807a.675.675,0,0,0,.022-1.349H635.709Z" transform="translate(-532.163 -426.488)" fill="#e6e6e6"/>
    <path id="Path_44" data-name="Path 44" d="M635.709,555.318a.675.675,0,0,0,0,1.349h31.807a.675.675,0,1,0,.022-1.349H635.709Z" transform="translate(-532.163 -438.428)" fill="#e6e6e6"/>
    <path id="Path_39-2" data-name="Path 39-2" d="M623.34,620.79H571.293a.965.965,0,0,1-.964-.964v-12.91a.965.965,0,0,1,.964-.964H623.34a.965.965,0,0,1,.964.964v12.911a.965.965,0,0,1-.964.964Zm-52.047-14.453a.579.579,0,0,0-.578.578v12.911a.579.579,0,0,0,.578.578H623.34a.579.579,0,0,0,.578-.578V606.916a.579.579,0,0,0-.578-.578Z" transform="translate(-483.843 -476.24)" fill="#e6e6e6"/>
    <path id="Path_40-2" data-name="Path 40-2" d="M635.709,624.591a.675.675,0,0,0,0,1.349h31.807a.675.675,0,1,0,.052-1.349H635.709Z" transform="translate(-532.163 -490.159)" fill="#e6e6e6"/>
    <path id="Path_41-2" data-name="Path 41-2" d="M635.709,640.578a.675.675,0,0,0,0,1.349h31.807a.675.675,0,1,0,.052-1.349H635.709Z" transform="translate(-532.163 -502.098)" fill="#e6e6e6"/>
    <path id="Path_970" data-name="Path 970" d="M375.04,804.609H229.174c-.212,0-.383-.092-.383-.206s.171-.206.383-.206H375.04c.211,0,.383.092.383.206S375.251,804.609,375.04,804.609Z" transform="translate(-187.423 -624.225)" fill="#e6e6e6"/>
    <g id="Group_58" data-name="Group 58" transform="translate(165.939 157.122)">
      <path id="Path_438" data-name="Path 438" d="M912.521,727.191a4.931,4.931,0,0,1-4.762-.839c-1.668-1.4-2.191-3.706-2.616-5.842l-1.258-6.317,2.635,1.814a19.193,19.193,0,0,1,5.145,4.541,6.516,6.516,0,0,1,.831,6.514" transform="translate(-898.872 -714.193)" fill="#e6e6e6"/>
      <path id="Path_439" data-name="Path 439" d="M922.541,751.168a31.711,31.711,0,0,0,.44-7.305,11.489,11.489,0,0,0-2.215-6.024,10.025,10.025,0,0,0-2.571-2.33c-.257-.162-.494.245-.238.407a9.527,9.527,0,0,1,3.768,4.547,15.263,15.263,0,0,1,.81,6.578c-.086,1.341-.267,2.672-.449,4a.244.244,0,0,0,.165.29.237.237,0,0,0,.29-.165Z" transform="translate(-909.299 -730.084)" fill="#f2f2f2"/>
      <path id="Path_442" data-name="Path 442" d="M894.947,770.558a3.63,3.63,0,0,1-3.163,1.633c-1.6-.076-2.936-1.193-4.138-2.254l-3.554-3.139,2.352-.112a14.136,14.136,0,0,1,5.039.365,4.8,4.8,0,0,1,3.392,3.444" transform="translate(-884.092 -753.35)" fill="#e6e6e6"/>
      <path id="Path_443" data-name="Path 443" d="M911.21,781.442c-1.6-2.825-3.448-5.965-6.757-6.968a7.54,7.54,0,0,0-2.842-.293c-.3.025-.226.491.076.465a7.005,7.005,0,0,1,4.536,1.2,11.786,11.786,0,0,1,3.117,3.364c.516.785.979,1.606,1.441,2.424C910.928,781.9,911.36,781.707,911.21,781.442Z" transform="translate(-897.031 -758.968)" fill="#f2f2f2"/>
    </g>
    <g id="Group_58-2" data-name="Group 58" transform="translate(46.939 157.122)">
      <path id="Path_438-2" data-name="Path 438" d="M904.4,727.191a4.931,4.931,0,0,0,4.762-.839c1.668-1.4,2.191-3.706,2.616-5.842l1.258-6.317-2.635,1.814a19.193,19.193,0,0,0-5.144,4.541,6.516,6.516,0,0,0-.831,6.514" transform="translate(-903.844 -714.193)" fill="#e6e6e6"/>
      <path id="Path_439-2" data-name="Path 439" d="M918.364,751.168a31.714,31.714,0,0,1-.44-7.305,11.489,11.489,0,0,1,2.215-6.024,10.026,10.026,0,0,1,2.571-2.33c.257-.162.494.245.238.407a9.527,9.527,0,0,0-3.768,4.547,15.264,15.264,0,0,0-.81,6.578c.086,1.341.267,2.672.449,4a.244.244,0,0,1-.165.29.237.237,0,0,1-.29-.165Z" transform="translate(-917.396 -730.084)" fill="#f2f2f2"/>
      <path id="Path_442-2" data-name="Path 442" d="M884.092,770.558a3.63,3.63,0,0,0,3.163,1.633c1.6-.076,2.936-1.193,4.138-2.254l3.554-3.139-2.352-.112a14.135,14.135,0,0,0-5.039.365,4.8,4.8,0,0,0-3.392,3.444" transform="translate(-880.737 -753.35)" fill="#e6e6e6"/>
      <path id="Path_443-2" data-name="Path 443" d="M901.449,781.442c1.6-2.825,3.448-5.965,6.757-6.968a7.54,7.54,0,0,1,2.842-.293c.3.025.226.491-.076.465a7.005,7.005,0,0,0-4.536,1.2,11.786,11.786,0,0,0-3.117,3.364c-.516.785-.979,1.606-1.441,2.424C901.732,781.9,901.3,781.707,901.449,781.442Z" transform="translate(-901.419 -758.968)" fill="#f2f2f2"/>
    </g>
    <g id="Group_59" data-name="Group 59" transform="translate(89.895 89.895)">
      <circle id="Ellipse_5" data-name="Ellipse 5" cx="4.048" cy="4.048" r="4.048" transform="translate(0.104 0.326)" fill="#31c88e"/>
      <rect id="Rectangle_3122" data-name="Rectangle 3122" width="4" height="2" rx="1" transform="translate(2.104 3.326)" fill="#e6e6e6"/>
    </g>
    <g id="Group_60" data-name="Group 60" transform="translate(89.895 111.493)">
      <circle id="Ellipse_5-2" data-name="Ellipse 5-2" cx="4.048" cy="4.048" r="4.048" transform="translate(0.104 -0.273)" fill="#31c88e"/>
      <rect id="Rectangle_3123" data-name="Rectangle 3123" width="4" height="1" rx="0.5" transform="translate(2.104 2.727)" fill="#e6e6e6"/>
    </g>
    <g id="Group_61" data-name="Group 61" transform="translate(89.895 133.083)">
      <circle id="Ellipse_5-3" data-name="Ellipse 5-3" cx="4.048" cy="4.048" r="4.048" transform="translate(0.104 0.138)" fill="#31c88e"/>
      <rect id="Rectangle_3124" data-name="Rectangle 3124" width="4" height="1" rx="0.5" transform="translate(2.104 4.138)" fill="#e6e6e6"/>
    </g>
    <rect id="Rectangle_3120" data-name="Rectangle 3120" width="2.026" height="16.966" rx="1.013" transform="translate(106 45.653) rotate(-45)" fill="#fff"/>
    <rect id="Rectangle_3121" data-name="Rectangle 3121" width="2.026" height="16.966" rx="1.013" transform="translate(117.996 44.221) rotate(45)" fill="#fff"/>
  </g>
</svg>
