<svg id="notification_icon" data-name="notification icon" xmlns="http://www.w3.org/2000/svg" width="25" height="32.333" viewBox="0 0 25 32.333">
  <path id="Path_15637" data-name="Path 15637" d="M1489,751a5,5,0,0,0,6,0" transform="translate(-1479.5 -721.167)" fill="none" stroke="#fff" stroke-linecap="round" stroke-linejoin="round" stroke-width="3"/>
  <path id="Path_15638" data-name="Path 15638" d="M1495.75,731.375v-.068a1.251,1.251,0,1,0-2.5,0v.068c-4.187.631-8.125,5.551-7.5,11.041.325,1.68-.687,2.57-1.737,3.5-1,.876-2.038,1.784-2.013,3.42a4.07,4.07,0,0,0,3.088,4.156,33.64,33.64,0,0,0,18.825,0,4.119,4.119,0,0,0,3.088-4.156c0-1.651-1.038-2.559-2.025-3.431-1.05-.923-2.05-1.8-1.725-3.486C1503.875,736.926,1499.937,732,1495.75,731.375Zm-8.212,14.424a5.406,5.406,0,0,0,.688-3.771,7.952,7.952,0,0,1,1.712-5.7,5.719,5.719,0,0,1,4.212-2.4h.7a5.719,5.719,0,0,1,4.213,2.4,7.953,7.953,0,0,1,1.712,5.7,5.383,5.383,0,0,0,.675,3.76,9,9,0,0,0,1.787,2l.038.033c1.187,1.043,1.225,1.206,1.225,1.511a1.564,1.564,0,0,1-.275,1.013,2.253,2.253,0,0,1-1.075.654l-.062.021-.05.022h-.013a.409.409,0,0,0-.062.026c-.075.025-.2.067-.375.12-.338.106-.875.255-1.6.407a34.21,34.21,0,0,1-12.975,0c-.725-.152-1.262-.3-1.6-.407-.175-.054-.3-.1-.375-.12a.4.4,0,0,0-.062-.026h0l-.062-.022-.063-.021a2.192,2.192,0,0,1-1.075-.64,1.465,1.465,0,0,1-.275-1.027V749.3c0-.26,0-.405,1.2-1.464l.038-.031h0A8.815,8.815,0,0,0,1487.537,745.8Z" transform="translate(-1481.999 -730)" fill="#fff" fill-rule="evenodd"/>
  <g id="Group_3223" data-name="Group 3223" transform="translate(15)" opacity="0">
    <g id="Ellipse_528" data-name="Ellipse 528" fill="#ff6464" stroke="#558cf7" stroke-width="1">
      <circle cx="5" cy="5" r="5" stroke="none"/>
      <circle cx="5" cy="5" r="4.5" fill="none"/>
    </g>
    <text id="_2" data-name="2" transform="translate(3.5 7)" fill="#fff" font-size="6" font-family="Montserrat-SemiBold, Montserrat" font-weight="600"><tspan x="0" y="0">2</tspan></text>
  </g>
</svg>
