<svg id="undraw_Organize_photos_re_ogcy" xmlns="http://www.w3.org/2000/svg" width="183.692" height="182.586" viewBox="0 0 183.692 182.586">
  <path id="Path_17196" data-name="Path 17196" d="M425.175,592.535a2.52,2.52,0,0,0-3.839-.437l-7.958-4.107.495,4.627,7.481,3.191a2.534,2.534,0,0,0,3.821-3.274Z" transform="translate(-368.3 -462.117)" fill="#ffb8b8"/>
  <path id="Path_17197" data-name="Path 17197" d="M375.131,544.162a1.129,1.129,0,0,1-.919.01l-7.559-3.279a11.621,11.621,0,0,1-5.88-5.688l-3.974-8.388a3.633,3.633,0,1,1,5.739-4.456l6.985,12.96,6.45,4.872a1.132,1.132,0,0,1,.4,1.233l-.633,2.045a1.129,1.129,0,0,1-.607.691Z" transform="translate(-325.328 -411.881)" fill="#31c88e"/>
  <circle id="Ellipse_664" data-name="Ellipse 664" cx="6.155" cy="6.155" r="6.155" transform="translate(25.142 92.761)" fill="#ffb8b8"/>
  <path id="Path_17198" data-name="Path 17198" d="M134.831,681.47H137.9l1.462-11.851h-4.534Z" transform="translate(-101.042 -501.81)" fill="#ffb8b8"/>
  <path id="Path_17199" data-name="Path 17199" d="M0,0H9.656V3.731H3.731A3.731,3.731,0,0,1,0,0H0Z" transform="translate(42.787 182.512) rotate(179.997)" fill="#2f2e41"/>
  <path id="Path_17200" data-name="Path 17200" d="M94.831,681.47H97.9l1.462-11.851H94.831Z" transform="translate(-71.066 -501.81)" fill="#ffb8b8"/>
  <path id="Path_17201" data-name="Path 17201" d="M0,0H9.656V3.731H3.731A3.731,3.731,0,0,1,0,0H0Z" transform="translate(32.762 182.512) rotate(179.997)" fill="#2f2e41"/>
  <path id="Path_17202" data-name="Path 17202" d="M323.217,665.771a1.127,1.127,0,0,1-.269-.892l5.379-40.343,13.364,2.27,1.426-.856-3.688,38.278a1.131,1.131,0,0,1-1.026.993l-4.047.337a1.127,1.127,0,0,1-1.22-1.188l1.048-18.229a.125.125,0,0,0-.246-.04l-5.183,19.221a1.13,1.13,0,0,1-1.089.834h-3.6a1.127,1.127,0,0,1-.849-.385Z" transform="translate(-300.524 -489.503)" fill="#2f2e41"/>
  <path id="Path_17203" data-name="Path 17203" d="M333.347,544.126a.885.885,0,0,0-1.132-.047l-2.672,2.078a1.127,1.127,0,0,1-1.776-.578c-1.311-4.59-4.28-16.143-3.548-24.275a8.517,8.517,0,0,1,8.873-7.818c3.061.2,5.075,1.97,5.986,5.249,2.236,8.05,4.693,22.816,5.163,25.694a1.123,1.123,0,0,1-.535,1.15,8.255,8.255,0,0,1-4.183,1.177A9.177,9.177,0,0,1,333.347,544.126Z" transform="translate(-301.398 -406.27)" fill="#31c88e"/>
  <path id="Path_17204" data-name="Path 17204" d="M338.26,614.766a2.52,2.52,0,0,0-2.751-2.713l-3.727-8.143-2.466,3.946,3.917,7.128a2.534,2.534,0,0,0,5.027-.218Z" transform="translate(-305.304 -474.046)" fill="#ffb8b8"/>
  <path id="Path_17205" data-name="Path 17205" d="M320.1,550.209a1.129,1.129,0,0,1-.73-.56l-3.924-7.245a11.621,11.621,0,0,1-1.116-8.1l2.05-9.053a3.633,3.633,0,0,1,7.266.036l-2.5,14.508,2.068,7.814a1.131,1.131,0,0,1-.448,1.216l-1.76,1.218a1.129,1.129,0,0,1-.643.2,1.116,1.116,0,0,1-.261-.031Z" transform="translate(-293.86 -412.388)" fill="#31c88e"/>
  <path id="Path_17206" data-name="Path 17206" d="M110.124,474.908l-2.255,9.523,3.258,8.019-2.255-7.769Z" transform="translate(-80.837 -355.894)" opacity="0.2"/>
  <path id="Path_17207" data-name="Path 17207" d="M337.235,464.042a6.13,6.13,0,0,1-5.506-3.465,6.719,6.719,0,0,1,.606-6.7,6.014,6.014,0,0,1,6.029-2.32,6.687,6.687,0,0,1,4.132-1.187,4.057,4.057,0,0,1,3.418,2.449,3.1,3.1,0,0,1-1.385,3.85,4.993,4.993,0,0,1-2.757.041,3.937,3.937,0,0,0-2.725.252,1.651,1.651,0,0,0-.444,2.455,2.67,2.67,0,0,1,.709,2.848A2.729,2.729,0,0,1,337.235,464.042Z" transform="translate(-306.645 -358.967)" fill="#2f2e41"/>
  <path id="Path_17208" data-name="Path 17208" d="M553.986,129.048h-1V101.6a15.889,15.889,0,0,0-15.889-15.889H478.933A15.889,15.889,0,0,0,463.044,101.6V252.2a15.889,15.889,0,0,0,15.889,15.889h58.162A15.889,15.889,0,0,0,552.983,252.2V148.589h1Z" transform="translate(-405.519 -85.707)" fill="#e6e6e6"/>
  <path id="Path_17209" data-name="Path 17209" d="M562.713,114.067V264.452a11.866,11.866,0,0,1-11.866,11.866H492.406a11.866,11.866,0,0,1-11.866-11.866V114.067A11.866,11.866,0,0,1,492.406,102.2h7.09a5.64,5.64,0,0,0,5.22,7.766h33.32a5.64,5.64,0,0,0,5.22-7.766h7.591a11.866,11.866,0,0,1,11.866,11.866Z" transform="translate(-418.631 -98.067)" fill="#fff"/>
  <path id="Path_17210" data-name="Path 17210" d="M575.972,431.7a3.04,3.04,0,0,0-2.855-2.007h-62.6a3.032,3.032,0,0,0-3.033,3.033v48.042a3.038,3.038,0,0,0,3.033,3.033h62.6a3.038,3.038,0,0,0,3.033-3.033V432.724A3.01,3.01,0,0,0,575.972,431.7Z" transform="translate(-438.819 -343.487)" fill="#f2f2f2"/>
  <path id="Path_17211" data-name="Path 17211" d="M575.972,190.9a3.04,3.04,0,0,0-2.855-2.007h-62.6a3.032,3.032,0,0,0-3.033,3.033v48.042A3.038,3.038,0,0,0,510.512,243h62.6a3.038,3.038,0,0,0,3.033-3.033V191.921A3.01,3.01,0,0,0,575.972,190.9Z" transform="translate(-438.819 -163.03)" fill="#fff"/>
  <path id="Path_17212" data-name="Path 17212" d="M575.972,190.9a3.04,3.04,0,0,0-2.855-2.007h-62.6a3.032,3.032,0,0,0-3.033,3.033v48.042A3.038,3.038,0,0,0,510.512,243h62.6a3.038,3.038,0,0,0,3.033-3.033V191.921A3.01,3.01,0,0,0,575.972,190.9Zm-.178,49.068a2.68,2.68,0,0,1-2.676,2.677h-62.6a2.68,2.68,0,0,1-2.677-2.677V191.921a2.68,2.68,0,0,1,2.677-2.676h62.6a2.68,2.68,0,0,1,2.677,2.676Z" transform="translate(-438.819 -163.03)" fill="#3f3d56"/>
  <path id="Path_17213" data-name="Path 17213" d="M586.893,212.157V245.7a.844.844,0,0,1-.844.845H529.1a.709.709,0,0,1-.121-.009.844.844,0,0,1-.724-.835V212.157a.844.844,0,0,1,.844-.845h56.947a.844.844,0,0,1,.845.844Z" transform="translate(-454.39 -179.836)" fill="#e6e6e6"/>
  <circle id="Ellipse_665" data-name="Ellipse 665" cx="7.41" cy="7.41" r="7.41" transform="translate(80.812 36.604)" fill="#31c88e"/>
  <path id="Path_17214" data-name="Path 17214" d="M569.153,261.546H532.8a.742.742,0,0,1-.136-.011l17.191-29.778a1.2,1.2,0,0,1,2.1,0l11.538,19.983.553.956Z" transform="translate(-457.695 -194.698)" fill="#3f3d56"/>
  <path id="Path_17215" data-name="Path 17215" d="M407.643,237.423h-12.41l6.092-8.849.439-.637.219-.319.553.956Z" transform="translate(-296.186 -170.576)" opacity="0.2"/>
  <path id="Path_17216" data-name="Path 17216" d="M665,287.79H633.563l6.092-8.849.438-.637,7.939-11.532a1.606,1.606,0,0,1,2.384-.143,1.438,1.438,0,0,1,.114.143Z" transform="translate(-533.306 -220.942)" fill="#3f3d56"/>
  <path id="Path_17217" data-name="Path 17217" d="M511.387,442.9a3.04,3.04,0,0,0-2.855-2.007h-62.6a3.032,3.032,0,0,0-3.033,3.033v48.042A3.038,3.038,0,0,0,445.927,495h62.6a3.038,3.038,0,0,0,3.033-3.033V443.921A3.01,3.01,0,0,0,511.387,442.9Z" transform="translate(-390.419 -351.878)" fill="#fff"/>
  <path id="Path_17218" data-name="Path 17218" d="M511.387,442.9a3.04,3.04,0,0,0-2.855-2.007h-62.6a3.032,3.032,0,0,0-3.033,3.033v48.042A3.038,3.038,0,0,0,445.927,495h62.6a3.038,3.038,0,0,0,3.033-3.033V443.921A3.01,3.01,0,0,0,511.387,442.9Zm-.178,49.068a2.68,2.68,0,0,1-2.676,2.676h-62.6a2.68,2.68,0,0,1-2.677-2.676V443.921a2.68,2.68,0,0,1,2.677-2.676h62.6a2.68,2.68,0,0,1,2.676,2.676Z" transform="translate(-390.419 -351.878)" fill="#3f3d56"/>
  <path id="Path_17219" data-name="Path 17219" d="M522.308,464.157V497.7a.844.844,0,0,1-.844.845H464.516a.709.709,0,0,1-.121-.009.844.844,0,0,1-.724-.835V464.157a.844.844,0,0,1,.844-.845h56.947a.844.844,0,0,1,.845.844Z" transform="translate(-405.99 -368.684)" fill="#e6e6e6"/>
  <circle id="Ellipse_666" data-name="Ellipse 666" cx="7.41" cy="7.41" r="7.41" transform="translate(64.627 99.756)" fill="#31c88e"/>
  <path id="Path_17220" data-name="Path 17220" d="M504.568,513.546H468.219a.745.745,0,0,1-.136-.011l17.191-29.778a1.2,1.2,0,0,1,2.1,0l11.538,19.983.553.956Z" transform="translate(-409.296 -383.546)" fill="#3f3d56"/>
  <path id="Path_17221" data-name="Path 17221" d="M343.058,489.423h-12.41l6.092-8.849.439-.637.219-.319.553.956Z" transform="translate(-247.786 -359.424)" opacity="0.2"/>
  <path id="Path_17222" data-name="Path 17222" d="M600.417,539.79H568.978l6.092-8.849.438-.637,7.939-11.532a1.606,1.606,0,0,1,2.384-.143,1.441,1.441,0,0,1,.114.143Z" transform="translate(-484.906 -409.79)" fill="#3f3d56"/>
  <path id="Path_17223" data-name="Path 17223" d="M536.522,701.565H518.478a4.636,4.636,0,0,1,0-9.272h18.043a4.636,4.636,0,0,1,0,9.272Z" transform="translate(-443.587 -540.28)" fill="#31c88e"/>
  <path id="Path_17224" data-name="Path 17224" d="M679.6,701.565H661.558a4.636,4.636,0,0,1,0-9.272H679.6a4.636,4.636,0,0,1,0,9.272Z" transform="translate(-550.811 -540.28)" fill="#f2f2f2"/>
  <path id="Path_17225" data-name="Path 17225" d="M416.942,812.794H233.751a.251.251,0,0,1,0-.5H416.942a.251.251,0,0,1,0,.5Z" transform="translate(-233.5 -630.208)" fill="#3f3d56"/>
</svg>
