<svg id="ticket.3" xmlns="http://www.w3.org/2000/svg" width="49.047" height="39.238" viewBox="0 0 49.047 39.238">
  <path id="Path_15537" data-name="Path 15537" d="M30.817,17.985V13.032A1.767,1.767,0,0,1,29.038,11.3v-5.9A1.416,1.416,0,0,0,27.591,4H11.3A9.181,9.181,0,0,0,2,13.032V19a1.7,1.7,0,0,0,.522,1.223,1.812,1.812,0,0,0,1.257.5A2.982,2.982,0,0,1,6.957,23.6,3.125,3.125,0,0,1,3.8,26.692,1.7,1.7,0,0,0,2,28.328v5.9a9.157,9.157,0,0,0,9.273,9.008H27.591a1.419,1.419,0,0,0,1.447-1.405V36.852a1.753,1.753,0,0,1,1.779-1.728V30.657a1.768,1.768,0,0,1-1.779-1.728V19.713A1.767,1.767,0,0,1,30.817,17.985Z" transform="translate(-2 -3.999)" fill="#fff"/>
  <path id="Path_15538" data-name="Path 15538" d="M29.024,23.606a3.144,3.144,0,0,0,3.154,3.087,1.7,1.7,0,0,1,1.8,1.613v5.921a9.143,9.143,0,0,1-9.273,9.01H16.976a1.434,1.434,0,0,1-1.447-1.408V36.854a1.737,1.737,0,0,0-1.779-1.728V30.658a1.753,1.753,0,0,0,1.779-1.728V19.715a1.75,1.75,0,0,0-1.779-1.728V13.031A1.751,1.751,0,0,0,15.529,11.3v-5.9A1.433,1.433,0,0,1,16.976,4h7.732a9.142,9.142,0,0,1,9.273,9.008v5.806a1.7,1.7,0,0,1-.522,1.221,1.8,1.8,0,0,1-1.257.507A3.131,3.131,0,0,0,29.024,23.606Z" transform="translate(15.066 -4)" fill="#fff" opacity="0.5"/>
</svg>
