<svg xmlns="http://www.w3.org/2000/svg" width="24.001" height="24.01" viewBox="0 0 24.001 24.01">
  <path id="Path_12544" data-name="Path 12544" d="M124.537,455.88a11.6,11.6,0,0,0,2.218,1.237c.475.172,1.222-.316,1.771-.675.137-.09.262-.172.367-.233l.034-.019a2.525,2.525,0,0,1,1.83-.458,15.218,15.218,0,0,1,3.567,2.565A2.058,2.058,0,0,1,135,459.58c.069,1.645-2.138,3.5-2.664,3.813-1.12.817-2.618.806-4.424-.012a24.5,24.5,0,0,1-6.472-4.426c-.8-.715-2.331-2.22-2.767-2.723a27.551,27.551,0,0,1-5.042-7.183,5.85,5.85,0,0,1-.629-2.463,3.231,3.231,0,0,1,.606-1.929c.24-.42,2.172-2.713,3.876-2.656a2.2,2.2,0,0,1,1.281.67,15.069,15.069,0,0,1,2.618,3.552,2.464,2.464,0,0,1-.461,1.8l-.019.034c-.066.114-.156.249-.253.4-.36.544-.833,1.259-.663,1.714a12.853,12.853,0,0,0,1.761,3.008A18.724,18.724,0,0,0,124.537,455.88Z" transform="translate(-112 -441)" fill="none" stroke="#c4c6cc" stroke-width="2"/>
</svg>
