<svg xmlns="http://www.w3.org/2000/svg" width="14.857" height="14.857" viewBox="0 0 14.857 14.857">
  <path id="image-2.3" d="M6.209,2h6.439a4.09,4.09,0,0,1,4.209,4.4v6.067a4.09,4.09,0,0,1-4.21,4.4H6.209A4.09,4.09,0,0,1,2,12.462V6.4A4.093,4.093,0,0,1,6.209,2Zm6.439,1.117H6.209A2.985,2.985,0,0,0,3.117,6.4v6.067a3.955,3.955,0,0,0,.267,1.485l.854-1.037.377-.465c.95-1.177,1.821-1.686,2.962-1.208a3.505,3.505,0,0,1,.511.268l.491.317c.49.311.723.355,1.082.161a2.435,2.435,0,0,0,.882-.937l.223-.355.152-.243c.136-.215.234-.357.352-.511a2.3,2.3,0,0,1,3.083-.7,7.41,7.41,0,0,1,1.387,1.116V6.4A2.981,2.981,0,0,0,12.648,3.117Zm3.092,8.774-.036-.032c-.077-.071-.16-.149-.26-.245l-.519-.5a6.3,6.3,0,0,0-1.147-.925,1.192,1.192,0,0,0-1.623.43l-.093.125c-.031.043-.062.089-.1.14l-.291.461a3.847,3.847,0,0,1-1.481,1.618,1.884,1.884,0,0,1-2.073-.115L7.8,12.643l-.274-.177a2.58,2.58,0,0,0-.376-.2c-.5-.209-.941.022-1.552.746L4.252,14.652l-.225.272a3.026,3.026,0,0,0,2.182.817h6.438a2.982,2.982,0,0,0,3.093-3.279ZM5.173,7.051A1.932,1.932,0,1,1,7.1,8.984,1.933,1.933,0,0,1,5.173,7.051Zm2.748,0a.816.816,0,1,0-.816.816A.816.816,0,0,0,7.921,7.051Z" transform="translate(-2 -2)" fill="#585858" fill-rule="evenodd"/>
</svg>
