<svg xmlns="http://www.w3.org/2000/svg" width="13.919" height="16.215" viewBox="0 0 13.919 16.215">
  <path id="paper-negative" d="M12.458,2a.617.617,0,0,1,.108.01h.106a.612.612,0,0,1,.442.188L17.249,6.5a.612.612,0,0,1,.171.424v7.593a3.688,3.688,0,0,1-3.657,3.694H7.242A3.642,3.642,0,0,1,3.5,14.522V5.666A3.729,3.729,0,0,1,7.242,2.01H12.35A.617.617,0,0,1,12.458,2ZM7.242,3.234h4.6V4.987l0,.154a2.714,2.714,0,0,0,2.7,2.56l.926,0,.715,0v6.821a2.464,2.464,0,0,1-2.433,2.469H7.242a2.419,2.419,0,0,1-2.517-2.469V5.666A2.506,2.506,0,0,1,7.242,3.234Zm7.314,3.243h.969L13.07,3.92V4.987A1.489,1.489,0,0,0,14.556,6.477Zm-1.633,5.112a.612.612,0,0,0-.612-.612h-4l-.083.006A.612.612,0,0,0,8.311,12.2h4l.083-.006A.612.612,0,0,0,12.923,11.589Z" transform="translate(-3.5 -2)" fill="#c4c6cc" fill-rule="evenodd"/>
</svg>
