<svg xmlns="http://www.w3.org/2000/svg" width="31.442" height="36.991" viewBox="0 0 31.442 36.991">
  <path id="paper-negative.1" d="M12.986,22.327A1.374,1.374,0,0,0,14.359,23.7h9.046a1.378,1.378,0,0,0,0-2.756H14.359A1.378,1.378,0,0,0,12.986,22.327Zm19.808-7.332c.43,0,.9-.01,1.325-.01a.825.825,0,0,1,.824.832v14.87a8.267,8.267,0,0,1-8.241,8.3H12.143A8.687,8.687,0,0,1,3.5,30.28V10.341A8.314,8.314,0,0,1,11.759,2h9.779a.844.844,0,0,1,.842.851V8.806A6.194,6.194,0,0,0,28.5,14.984c.783,0,1.473.006,2.077.011.47,0,.887.008,1.256.008C32.09,15,32.428,15,32.793,14.994Zm.5-2.7c-1.505.006-3.28,0-4.556-.013a3.731,3.731,0,0,1-3.694-3.731V3.676a.874.874,0,0,1,1.505-.618l3.71,3.9L33.924,10.8A.882.882,0,0,1,33.3,12.295Z" transform="translate(-3.5 -2)" fill="#fff" fill-rule="evenodd"/>
</svg>
