<svg xmlns="http://www.w3.org/2000/svg" width="22.636" height="23.827" viewBox="0 0 22.636 23.827">
  <path id="setting.1" d="M23.828,15.8a2.742,2.742,0,0,1,.986.941,2.4,2.4,0,0,1-.024,2.442l-.852,1.43a2.5,2.5,0,0,1-3.446.882,1.942,1.942,0,0,0-1.071-.274,2.274,2.274,0,0,0-2.253,2.168,2.464,2.464,0,0,1-2.52,2.442H12.992a2.466,2.466,0,0,1-2.532-2.442,2.254,2.254,0,0,0-2.24-2.168,1.89,1.89,0,0,0-1.071.274,2.575,2.575,0,0,1-1.291.357A2.542,2.542,0,0,1,3.69,20.609l-.84-1.43a2.377,2.377,0,0,1-.024-2.442A2.524,2.524,0,0,1,3.8,15.8a1.947,1.947,0,0,0,.767-.762,2.185,2.185,0,0,0-.791-2.978,2.435,2.435,0,0,1-.9-3.372L3.69,7.278a2.531,2.531,0,0,1,3.433-.905A2.339,2.339,0,0,0,10.18,5.55,1.842,1.842,0,0,0,10.46,4.5,2.126,2.126,0,0,1,10.8,3.239,2.615,2.615,0,0,1,12.956,2h1.717A2.564,2.564,0,0,1,16.84,3.239,2.118,2.118,0,0,1,17.168,4.5a1.842,1.842,0,0,0,.28,1.048,2.351,2.351,0,0,0,3.068.822,2.517,2.517,0,0,1,3.421.905l.816,1.406a2.415,2.415,0,0,1-.9,3.372,2.17,2.17,0,0,0-.779,2.978A1.843,1.843,0,0,0,23.828,15.8Zm-13.454-1.87a3.44,3.44,0,1,0,3.458-3.372A3.4,3.4,0,0,0,10.375,13.926Z" transform="translate(-2.5 -2)" fill="#fff" fill-rule="evenodd"/>
</svg>
