<svg xmlns="http://www.w3.org/2000/svg" width="36.239" height="28.991" viewBox="0 0 36.239 28.991">
  <path id="ticket" d="M37.853,15.848a1.332,1.332,0,0,1-.929.375,2.274,2.274,0,1,0-.025,4.545,1.263,1.263,0,0,1,1.339,1.2v4.367a6.756,6.756,0,0,1-6.852,6.656H25.674a1.054,1.054,0,0,1-1.069-1.038V28.275a1.315,1.315,0,0,0-2.629,0v3.677a1.053,1.053,0,0,1-1.067,1.038H8.852A6.766,6.766,0,0,1,2,26.335V21.968a1.263,1.263,0,0,1,1.339-1.2,2.315,2.315,0,0,0,2.324-2.281,2.2,2.2,0,0,0-2.348-2.128,1.333,1.333,0,0,1-.929-.375,1.257,1.257,0,0,1-.386-.9V10.673A6.793,6.793,0,0,1,8.869,4H20.91a1.053,1.053,0,0,1,1.067,1.038V9.4a1.315,1.315,0,0,0,2.629,0V5.038A1.054,1.054,0,0,1,25.674,4h5.713a6.755,6.755,0,0,1,6.852,6.656v4.29A1.257,1.257,0,0,1,37.853,15.848ZM23.291,23.7a1.294,1.294,0,0,0,1.314-1.277V15.61a1.315,1.315,0,0,0-2.629,0v6.809A1.305,1.305,0,0,0,23.291,23.7Z" transform="translate(-2 -4)" fill="#fff" fill-rule="evenodd"/>
</svg>
