<svg xmlns="http://www.w3.org/2000/svg" width="34.774" height="25.29" viewBox="0 0 34.774 25.29">
  <path id="_3-user.3" data-name="3-user.3" d="M24.96,10.691A6.654,6.654,0,1,1,18.307,4,6.65,6.65,0,0,1,24.96,10.691Zm-6.653,18.6c-5.423,0-10.054-.86-10.054-4.3s4.6-4.332,10.054-4.332c5.424,0,10.055.86,10.055,4.3S23.76,29.29,18.307,29.29Zm9.5-18.479a9.112,9.112,0,0,1-1.556,5.123.251.251,0,0,0,.168.386,5.373,5.373,0,0,0,.764.074,5.553,5.553,0,0,0,5.572-4.144,5.652,5.652,0,0,0-5.414-7.135,5.543,5.543,0,0,0-1.12.115.2.2,0,0,0-.13.078.163.163,0,0,0,.025.174A9.178,9.178,0,0,1,27.8,10.811Zm4.3,8.225c1.745.343,2.893,1.043,3.369,2.061a3.039,3.039,0,0,1,0,2.639c-.728,1.579-3.073,2.086-3.984,2.216a.286.286,0,0,1-.32-.325c.466-4.375-3.238-6.449-4.2-6.926a.071.071,0,0,1-.045-.074.06.06,0,0,1,.051-.041A24.586,24.586,0,0,1,32.1,19.036ZM9.594,16.394a5.192,5.192,0,0,0,.764-.074.25.25,0,0,0,.168-.386A9.234,9.234,0,0,1,10.66,5.483a.166.166,0,0,0,.025-.174.215.215,0,0,0-.13-.078,5.565,5.565,0,0,0-1.121-.115A5.651,5.651,0,0,0,4.022,12.25,5.553,5.553,0,0,0,9.594,16.394Zm.253,2.234A.073.073,0,0,1,9.8,18.7c-.96.477-4.663,2.551-4.2,6.924a.286.286,0,0,1-.318.326c-.911-.131-3.257-.638-3.984-2.217a3.029,3.029,0,0,1,0-2.639c.476-1.018,1.622-1.718,3.367-2.063A24.725,24.725,0,0,1,9.8,18.588.058.058,0,0,1,9.847,18.628Z" transform="translate(-1 -4)" fill="#fff" fill-rule="evenodd"/>
</svg>
