<svg xmlns="http://www.w3.org/2000/svg" width="182" height="158" viewBox="0 0 182 158">
  <g id="Group_3220" data-name="Group 3220" transform="translate(-128 -162.867)">
    <g id="Polygon_1" data-name="Polygon 1" transform="translate(128 162.867)" fill="#fff">
      <path d="M 156.05078125 152.5 L 25.94925498962402 152.5 C 22.51691436767578 152.5 19.4422550201416 150.7259368896484 17.72451782226562 147.7543640136719 C 16.00678253173828 144.7827606201172 16.00396537780762 141.2329406738281 17.71701812744141 138.2586212158203 L 82.76775360107422 25.31341743469238 C 84.48391723632812 22.33370590209961 87.56141662597656 20.55475807189941 90.99999237060547 20.55475807189941 C 94.4385986328125 20.55475807189941 97.51606750488281 22.33367919921875 99.23223114013672 25.31341743469238 L 164.282958984375 138.2586517333984 C 165.9957885742188 141.2325744628906 165.9928131103516 144.7822265625 164.2749938964844 147.7539672851562 C 162.55712890625 150.7257843017578 159.4826812744141 152.5 156.05078125 152.5 Z" stroke="none"/>
      <path d="M 90.99999237060547 26.05473327636719 C 90.13645935058594 26.05473327636719 88.53785705566406 26.31503295898438 87.53379058837891 28.05836486816406 L 22.48306274414062 141.003662109375 C 21.48078918457031 142.7438049316406 22.05482482910156 144.2555694580078 22.48619079589844 145.0018005371094 C 22.91755676269531 145.7480621337891 23.94108581542969 147 25.94926452636719 147 L 156.0507507324219 147 C 158.0588989257812 147 159.0824279785156 145.7480621337891 159.5137939453125 145.0018310546875 C 159.9451599121094 144.2555694580078 160.5191955566406 142.7438354492188 159.5169219970703 141.0036315917969 L 94.46619415283203 28.05836486816406 C 93.46212768554688 26.31503295898438 91.863525390625 26.05473327636719 90.99999237060547 26.05473327636719 M 90.99999237060547 15.05473327636719 C 96.05662536621094 15.05473327636719 101.1132583618164 17.55928039550781 103.9982604980469 22.56840515136719 L 169.0489959716797 135.513671875 C 174.8084869384766 145.513671875 167.5907287597656 158 156.0507507324219 158 L 25.94926452636719 158 C 14.40925598144531 158 7.191497802734375 145.513671875 12.95098876953125 135.513671875 L 78.00172424316406 22.56840515136719 C 80.88672637939453 17.55928039550781 85.943359375 15.05473327636719 90.99999237060547 15.05473327636719 Z" stroke="none" fill="#ed1e54"/>
    </g>
    <line id="Line_1" data-name="Line 1" y2="48.533" transform="translate(219.5 221.847)" fill="none" stroke="#ed1e54" stroke-linecap="round" stroke-width="12"/>
    <circle id="Ellipse_527" data-name="Ellipse 527" cx="6" cy="6" r="6" transform="translate(213 280.867)" fill="#ed1e54"/>
  </g>
</svg>
